<?xml version="1.0" encoding="iso-8859-1"?>
<!-- Generator: Adobe Illustrator 19.0.0, SVG Export Plug-In . SVG Version: 6.00 Build 0)  -->
<svg xmlns="http://www.w3.org/2000/svg" xmlns:xlink="http://www.w3.org/1999/xlink" version="1.1" id="Capa_1" x="0px" y="0px" viewBox="0 0 496 496" style="enable-background:new 0 0 496 496;" xml:space="preserve" width="512px" height="512px">
<g>
	<g>
		<g>
			<path d="M0,408c0,22.056,17.944,40,40,40h96v32h-32v16h288v-16h-32v-32h96c22.056,0,40-17.944,40-40v-24H0V408z M344,480H152v-32     h192V480z M16,400h464v8c0,13.232-10.768,24-24,24H40c-13.232,0-24-10.768-24-24V400z" fill="#127bb8"/>
			<path d="M16,120c0-13.232,10.768-24,24-24h24V80H40C17.944,80,0,97.944,0,120v248h16V120z" fill="#127bb8"/>
			<path d="M456,80h-24v16h24c13.232,0,24,10.768,24,24v248h16V120C496,97.944,478.056,80,456,80z" fill="#127bb8"/>
			<path d="M416,0H192v304h224V0z M400,288H208V16h192V288z" fill="#127bb8"/>
			<polygon points="304,320 288,320 288,352 96,352 96,80 176,80 176,64 80,64 80,368 304,368    " fill="#127bb8"/>
			<path d="M376,152c0-20.904-16.176-37.92-36.632-39.656C347.184,103.8,352,92.464,352,80c0-26.472-21.528-48-48-48     s-48,21.528-48,48c0,12.464,4.816,23.8,12.632,32.344C248.176,114.08,232,131.096,232,152v56h144V152z M304,48     c17.648,0,32,14.352,32,32s-14.352,32-32,32s-32-14.352-32-32S286.352,48,304,48z M360,192H248v-40c0-13.232,10.768-24,24-24h64     c13.232,0,24,10.768,24,24V192z" fill="#127bb8"/>
			<rect x="232" y="224" width="16" height="16" fill="#127bb8"/>
			<rect x="264" y="224" width="112" height="16" fill="#127bb8"/>
			<rect x="360" y="256" width="16" height="16" fill="#127bb8"/>
			<rect x="232" y="256" width="112" height="16" fill="#127bb8"/>
			<polygon points="176,112 176,96 112,96 112,160 176,160 176,144 128,144 128,112    " fill="#127bb8"/>
			<rect x="112" y="176" width="64" height="16" fill="#127bb8"/>
			<rect x="112" y="208" width="64" height="16" fill="#127bb8"/>
			<rect x="112" y="272" width="16" height="16" fill="#127bb8"/>
			<rect x="144" y="272" width="32" height="16" fill="#127bb8"/>
			<rect x="112" y="304" width="64" height="16" fill="#127bb8"/>
		</g>
	</g>
</g>
<g>
</g>
<g>
</g>
<g>
</g>
<g>
</g>
<g>
</g>
<g>
</g>
<g>
</g>
<g>
</g>
<g>
</g>
<g>
</g>
<g>
</g>
<g>
</g>
<g>
</g>
<g>
</g>
<g>
</g>
</svg>
